<svg width="20" height="21" viewBox="0 0 20 21" fill="none" xmlns="http://www.w3.org/2000/svg">
<path fill-rule="evenodd" clip-rule="evenodd" d="M9.15272 0.0350628C5.68188 0.324775 2.57167 2.46745 1.0329 5.62887C0.556867 6.60691 0.236043 7.65782 0.0829987 8.74058C-0.0109019 9.40507 -0.0109019 10.7837 0.0829987 11.4482C0.518265 14.5275 2.24584 17.1641 4.8763 18.7636C7.99155 20.6579 12.0091 20.6579 15.1244 18.7636C17.4429 17.3538 19.0653 15.1425 19.706 12.5191C19.9258 11.6192 19.9862 11.0963 19.9862 10.0944C19.9862 9.0924 19.9258 8.56956 19.706 7.66967C19.3788 6.32961 18.8253 5.14966 18.0089 4.05123C15.9284 1.25194 12.6088 -0.253437 9.15272 0.0350628ZM12.8033 5.10351V6.13402L12.1727 6.13426C11.4403 6.1345 11.2926 6.16586 11.127 6.35616C10.9549 6.55402 10.9218 6.7216 10.9216 7.39689L10.9213 7.99296H11.8631H12.8049L12.786 8.08389C12.7756 8.13392 12.7271 8.61579 12.6781 9.1548L12.5891 10.1348H11.7752H10.9614V13.1657V16.1966H9.68H8.39863V13.1667V10.1369L7.78797 10.1257L7.17732 10.1146L7.16663 9.07499L7.15594 8.03543L7.78729 8.02428L8.41865 8.01317L8.44156 6.98266C8.4601 6.14788 8.47807 5.90993 8.53614 5.7299C8.75353 5.05591 9.11472 4.6016 9.63996 4.34143C10.1161 4.10558 10.3094 4.07984 11.6321 4.07621L12.8033 4.07301V5.10351Z" fill="white"/>
</svg>
