<svg width="14" height="14" viewBox="0 0 14 14" fill="none" xmlns="http://www.w3.org/2000/svg">
<circle cx="7" cy="7" r="7" fill="#EFB48A"/>
<path fill-rule="evenodd" clip-rule="evenodd" d="M7.74028 3.7834C7.41436 3.85078 7.17663 3.99357 7.02536 4.21276C6.94959 4.32255 6.92814 4.39466 6.92617 4.54644C6.92305 4.78385 7.01006 4.9252 7.2309 5.04146C7.3563 5.10749 7.4308 5.12378 7.6545 5.1341C8.30698 5.16417 8.8324 4.82706 8.83455 4.37693C8.83582 4.11628 8.70069 3.93269 8.43108 3.82879C8.29406 3.77599 7.90102 3.75015 7.74028 3.7834ZM7.54209 5.98671C6.90171 6.11508 5.9387 6.503 5.29026 6.89377C5.18818 6.95529 5.09901 7.00835 5.0921 7.01169C5.0734 7.02074 5.27508 7.27107 5.30106 7.27107C5.31335 7.27107 5.46625 7.21661 5.64091 7.15006C5.99828 7.01388 6.32766 6.92641 6.38453 6.95258C6.40539 6.96221 6.42247 6.99023 6.42247 7.0149C6.42247 7.03955 6.26956 7.53361 6.08269 8.11281C5.78427 9.03774 5.74247 9.19785 5.73932 9.42865C5.73531 9.72007 5.77659 9.81356 5.95191 9.91024C6.09702 9.99026 6.46367 9.98606 6.81224 9.90039C7.1721 9.81196 7.74336 9.59047 8.09583 9.40274C8.40339 9.2389 8.91002 8.91363 8.90906 8.8806C8.90876 8.87015 8.85315 8.81286 8.78552 8.75328L8.66253 8.64493L8.48832 8.73425C8.27669 8.84276 7.89471 8.97836 7.73278 9.00242C7.62647 9.01824 7.61132 9.01235 7.58912 8.94646C7.55312 8.83955 7.57802 8.7509 7.92147 7.76375C8.30082 6.67345 8.31567 6.62195 8.31567 6.3975C8.31567 5.99149 8.0971 5.87542 7.54209 5.98671Z" fill="white"/>
</svg>
