<svg width="20" height="21" viewBox="0 0 20 21" fill="none" xmlns="http://www.w3.org/2000/svg">
<path fill-rule="evenodd" clip-rule="evenodd" d="M4.59445 0.0929178C3.43741 0.303982 2.46286 0.818788 1.63121 1.65805C0.778974 2.51819 0.282886 3.49061 0.0744158 4.70978C0.000161024 5.14415 -0.00912794 5.9119 0.00633487 10.3409C0.0239669 15.3896 0.0260807 15.476 0.144332 15.9181C0.718125 18.0642 2.25806 19.5847 4.35861 20.0795C4.77628 20.1778 5.12296 20.1843 10.0042 20.1843C14.8779 20.1843 15.2328 20.1777 15.6498 20.0799C17.7674 19.583 19.3925 17.943 19.8848 15.8058C19.9818 15.385 19.9883 15.0268 19.9883 10.1082C19.9883 5.18956 19.9818 4.83143 19.8848 4.41059C19.3636 2.14833 17.6276 0.486867 15.3698 0.0894936C14.6803 -0.0318684 5.2618 -0.0288933 4.59445 0.0929178ZM17.2898 2.43871C17.6214 2.66016 17.7634 2.93999 17.7634 3.37211C17.7634 3.80984 17.6211 4.08422 17.2739 4.31611C16.9636 4.52336 16.4204 4.53145 16.1049 4.33352C15.6839 4.06935 15.486 3.54483 15.6192 3.0458C15.6957 2.7589 16.0361 2.39139 16.3012 2.30954C16.5928 2.21945 17.0512 2.27934 17.2898 2.43871ZM11.3113 4.65651C13.3482 5.16958 14.894 6.73679 15.4147 8.81712C15.5846 9.49545 15.5846 10.721 15.4147 11.3993C15.0592 12.8194 14.2225 14.0197 13.0509 14.7902C10.8141 16.2613 7.9442 15.9538 6.0534 14.0404C3.89951 11.8608 3.91192 8.32617 6.08105 6.15075C6.91887 5.31053 7.87551 4.80336 9.04418 4.57983C9.62297 4.46914 10.7139 4.50602 11.3113 4.65651ZM9.28112 6.82773C7.80315 7.14926 6.66886 8.57372 6.66886 10.1082C6.66886 11.9245 8.20451 13.4743 10.0042 13.4743C11.5389 13.4743 12.9427 12.3247 13.2578 10.8099C13.4955 9.66727 13.1716 8.57934 12.3454 7.74546C11.5171 6.90963 10.418 6.5804 9.28112 6.82773Z" fill="white"/>
</svg>
