<svg width="200" height="50" viewBox="0 0 200 50" fill="none" xmlns="http://www.w3.org/2000/svg">
<path d="M46.6725 10.9966H49.1068V21.7642H46.6725V10.9966Z" fill="white"/>
<path d="M51.9587 10.9966H54.4534L57.2628 16.3519L58.3278 18.7174H58.3939C58.2792 17.5784 58.0828 16.0698 58.0828 14.8006V10.9966H60.4024V21.7642H57.9078L55.0983 16.3953L54.0333 14.0435H53.9673C54.082 15.2311 54.2784 16.6735 54.2784 17.9428V21.7642H51.9587V10.9966Z" fill="white"/>
<path d="M62.5627 20.4057L63.9607 18.7355C64.7265 19.402 65.7195 19.8606 66.6056 19.8606C67.6217 19.8606 68.119 19.4605 68.119 18.8214C68.119 18.1435 67.5069 17.9259 66.5663 17.5392L65.167 16.9426C64.0513 16.4887 62.994 15.5722 62.994 14.0076C62.994 12.2232 64.5879 10.7983 66.8292 10.7983C68.1233 10.8006 69.3656 11.3068 70.2929 12.2095L69.0641 13.7436C68.3547 13.1994 67.6803 12.9002 66.8292 12.9002C65.9899 12.9002 65.4556 13.2498 65.4556 13.8656C65.4556 14.5261 66.1599 14.766 67.0998 15.1401L68.4718 15.6959C69.7867 16.2275 70.6077 17.1032 70.6077 18.625C70.6077 20.4132 69.1169 21.9624 66.5511 21.9624C65.0741 21.9583 63.6519 21.4032 62.5627 20.4057Z" fill="white"/>
<path d="M74.534 13.0382H71.5703V10.9966H79.932V13.0382H76.9683V21.7642H74.534V13.0382Z" fill="white"/>
<path d="M83.2693 10.9966H86.182L89.5637 21.7642H86.9873L85.5787 16.3109C85.2794 15.2343 84.9918 13.9611 84.7042 12.8379H84.6381C84.3778 13.9748 84.0902 15.2343 83.791 16.3109L82.3765 21.7641H79.8876L83.2693 10.9966ZM82.1173 17.3074H87.2981V19.1992H82.1172L82.1173 17.3074Z" fill="white"/>
<path d="M90.3712 16.4427C90.3712 12.8702 92.7446 10.7983 95.6192 10.7983C96.2506 10.7893 96.8773 10.9085 97.4613 11.1488C98.0454 11.389 98.5746 11.7452 99.0169 12.1959L97.7336 13.7572C97.1991 13.2655 96.6239 12.9002 95.7009 12.9002C94.0435 12.9002 92.8658 14.2022 92.8658 16.361C92.8658 18.5744 93.8685 19.8606 95.8954 19.8606C96.3266 19.8606 96.7733 19.748 97.0356 19.5402V17.6809H95.2518V15.6938H99.1977V20.6582C98.4552 21.3851 97.147 21.9624 95.6446 21.9624C92.6785 21.9624 90.3712 20.0695 90.3712 16.4427Z" fill="white"/>
<path d="M101.734 10.9966H105.612C107.896 10.9966 109.768 11.7896 109.768 14.3496C109.768 16.8241 107.896 17.8892 105.612 17.8892H104.168V21.7641H101.734V10.9966ZM105.414 15.9566C106.694 15.9566 107.382 15.4086 107.382 14.3496C107.382 13.2849 106.694 12.9293 105.414 12.9293H104.168V15.9566H105.414ZM105.167 17.2477L106.85 15.6901L110.287 21.7642H107.563L105.167 17.2477Z" fill="white"/>
<path d="M114.046 10.9966H116.959L120.34 21.7642H117.764L116.355 16.3109C116.056 15.2343 115.769 13.9611 115.481 12.8379H115.415C115.154 13.9748 114.867 15.2343 114.568 16.3109L113.153 21.7641H110.664L114.046 10.9966ZM112.894 17.3074H118.075V19.1992H112.894V17.3074Z" fill="white"/>
<path d="M121.69 10.9966H124.346L126.093 15.7809C126.309 16.4163 126.497 17.1062 126.713 17.7689H126.779C126.995 17.1062 127.177 16.4163 127.393 15.7809L129.086 10.9966H131.741V21.7642H129.525V17.8127C129.525 16.7631 129.721 15.1963 129.836 14.1544H129.77L128.886 16.7025L127.364 20.8274H126.013L124.488 16.7025L123.629 14.1544H123.563C123.677 15.1963 123.874 16.7631 123.874 17.8127V21.7642H121.69V10.9966Z" fill="white"/>
<path d="M46.6725 30.1919H49.7165C53.005 30.1919 55.1239 31.8282 55.1239 35.529C55.1239 39.2298 53.005 40.9595 49.8526 40.9595H46.6725V30.1919ZM49.5687 38.9995C51.3951 38.9995 52.6292 38.1042 52.6292 35.529C52.6292 32.9538 51.3951 32.1519 49.5687 32.1519H49.1068V38.9995H49.5687Z" fill="white"/>
<path d="M57.4765 30.1919H59.9108V40.9595H57.4765V30.1919Z" fill="white"/>
<path d="M62.2537 35.638C62.2537 32.0655 64.6271 29.9936 67.5017 29.9936C68.1331 29.9846 68.7598 30.1038 69.3438 30.3441C69.9278 30.5843 70.457 30.9405 70.8993 31.3912L69.6161 32.9525C69.0816 32.4608 68.5064 32.0955 67.5833 32.0955C65.9259 32.0955 64.7483 33.3975 64.7483 35.5563C64.7483 37.7696 65.7509 39.0559 67.7778 39.0559C68.209 39.0559 68.6558 38.9433 68.918 38.7355V36.8762H67.1342V34.8891H71.0801V39.8535C70.3376 40.5804 69.0295 41.1577 67.527 41.1577C64.561 41.1577 62.2537 39.2648 62.2537 35.638Z" fill="white"/>
<path d="M73.6163 30.1919H76.0506V40.9595H73.6163V30.1919Z" fill="white"/>
<path d="M81.0094 32.2335H78.0457V30.1919H86.4074V32.2335H83.4437V40.9595H81.0094V32.2335Z" fill="white"/>
<path d="M89.7446 30.1919H92.6574L96.039 40.9595H93.4627L92.054 35.5063C91.7548 34.4296 91.4672 33.1564 91.1796 32.0332H91.1134C90.8531 33.1701 90.5654 34.4296 90.2663 35.5063L88.8518 40.9595H86.363L89.7446 30.1919ZM88.5926 36.5027H93.7735V38.3945H88.5926L88.5926 36.5027Z" fill="white"/>
<path d="M97.3887 30.1919H99.8231V38.9179H104.073V40.9595H97.3887V30.1919Z" fill="white"/>
<path d="M109.878 30.1919H112.534L114.281 34.9762C114.496 35.6116 114.685 36.3016 114.9 36.9643H114.967C115.182 36.3016 115.365 35.6116 115.581 34.9762L117.273 30.1919H119.929V40.9595H117.712V37.008C117.712 35.9584 117.909 34.3916 118.024 33.3497H117.957L117.074 35.8979L115.552 40.0228H114.2L112.675 35.8979L111.816 33.3497H111.75C111.865 34.3916 112.061 35.9584 112.061 37.008V40.9595H109.878L109.878 30.1919Z" fill="white"/>
<path d="M124.783 30.1919H127.696L131.078 40.9595H128.502L127.093 35.5063C126.794 34.4296 126.506 33.1564 126.218 32.0332H126.152C125.892 33.1701 125.604 34.4296 125.305 35.5063L123.891 40.9595H121.402L124.783 30.1919ZM123.631 36.5027H128.812V38.3945H123.631V36.5027Z" fill="white"/>
<path d="M132.428 30.1919H136.305C138.589 30.1919 140.461 30.985 140.461 33.5449C140.461 36.0194 138.589 37.0845 136.305 37.0845H134.862V40.9594H132.428V30.1919ZM136.107 35.1519C137.388 35.1519 138.076 34.6039 138.076 33.545C138.076 32.4802 137.388 32.1246 136.107 32.1246H134.862V35.1519H136.107ZM135.86 36.443L137.544 34.8854L140.98 40.9595H138.256L135.86 36.443Z" fill="white"/>
<path d="M142.868 30.1919H145.302V34.5913H145.363L148.572 30.1919H151.248L147.99 34.4895L151.847 40.9595H149.177L146.56 36.4105L145.303 38.0737V40.9595H142.868L142.868 30.1919Z" fill="white"/>
<path d="M153.325 30.1919H160.072V32.2335H155.76V34.3956H159.431V36.4372H155.76V38.9179H160.237V40.9595H153.325L153.325 30.1919Z" fill="white"/>
<path d="M164.799 32.2335H161.835V30.1919H170.197V32.2335H167.233V40.9595H164.799V32.2335Z" fill="white"/>
<path d="M172.191 30.1919H174.625V40.9595H172.191V30.1919Z" fill="white"/>
<path d="M177.477 30.1919H179.972L182.781 35.5472L183.846 37.9127H183.912C183.798 36.7737 183.601 35.2651 183.601 33.9959V30.1919H185.921V40.9595H183.426L180.617 35.5906L179.552 33.2388H179.486C179.601 34.4264 179.797 35.8688 179.797 37.1381V40.9595H177.477V30.1919Z" fill="white"/>
<path d="M188.268 35.638C188.268 32.0655 190.641 29.9936 193.516 29.9936C194.147 29.9846 194.774 30.1038 195.358 30.3441C195.942 30.5843 196.471 30.9405 196.914 31.3912L195.63 32.9525C195.096 32.4608 194.521 32.0955 193.598 32.0955C191.94 32.0955 190.763 33.3975 190.763 35.5563C190.763 37.7696 191.765 39.0559 193.792 39.0559C194.223 39.0559 194.67 38.9433 194.932 38.7355V36.8762H193.149V34.8891H197.094V39.8535C196.352 40.5804 195.044 41.1577 193.541 41.1577C190.575 41.1577 188.268 39.2648 188.268 35.638Z" fill="white"/>
<path d="M35.3775 3.35791H23.2765C21.653 3.35961 20.0965 4.00523 18.9484 5.15312C17.8004 6.301 17.1545 7.85742 17.1525 9.48091V29.5505L14.2093 31.4771L1.82118 43.4243L1.80482 43.4408C0.749737 44.5574 0.803007 45.4907 1.20467 45.9918C1.41654 46.2562 1.78973 46.46 2.30355 46.46C2.72955 46.46 3.25209 46.3199 3.85912 45.9579C6.96612 44.1054 14.2982 39.354 17.1525 37.4978V41.818C17.1545 43.4415 17.8004 44.9979 18.9485 46.1458C20.0965 47.2936 21.653 47.9393 23.2765 47.9409H35.3775C37.001 47.9392 38.5575 47.2936 39.7056 46.1458C40.8537 44.9979 41.4995 43.4415 41.5015 41.818V9.48095C41.4996 7.85746 40.8537 6.30103 39.7056 5.15313C38.5575 4.00524 37.001 3.35962 35.3775 3.35791ZM23.2765 4.35791H35.3775C36.7359 4.3593 38.0382 4.89946 38.9989 5.85988C39.9595 6.8203 40.4999 8.12254 40.5015 9.48091V9.58375H18.1525V9.48095C18.1542 8.12258 18.6946 6.82033 19.6552 5.8599C20.6158 4.89948 21.9181 4.35931 23.2765 4.35791H23.2765ZM3.34706 45.0989C2.61127 45.5377 2.10761 45.5195 1.985 45.3664C1.86664 45.2188 1.95629 44.74 2.524 44.1357L14.8357 32.2623L22.6914 27.1199L24.5755 29.4231L17.7333 35.9261C17.0342 36.3823 7.09227 42.8659 3.34706 45.0989ZM29.9809 20.2792C30.0019 20.2479 30.0178 20.223 30.0314 20.2016C30.0448 20.1776 30.0613 20.1556 30.0805 20.136C30.0884 20.1275 30.0959 20.1187 30.1032 20.1098C30.5775 19.5202 31.4356 19.4005 32.2654 19.2847C32.4418 19.2601 32.6084 19.2368 32.7735 19.2089C33.8125 19.033 34.479 18.5113 35.1646 17.5069C35.1677 18.7204 35.0663 20.4034 34.5953 21.8425C34.5703 21.9192 34.5462 21.9964 34.5222 22.0739C34.448 22.3651 34.3327 22.6443 34.1798 22.903C34.1766 22.9077 34.1736 22.9124 34.1706 22.9172C34.1389 22.9708 34.1027 23.0217 34.0625 23.0692C34.056 23.0763 34.0498 23.0837 34.0438 23.0912C33.6114 23.6274 32.984 23.9702 32.2992 24.0445C31.6144 24.1187 30.9281 23.9182 30.3909 23.4871V23.487C29.3579 22.6561 29.2002 21.4277 29.9809 20.2792ZM29.1724 23.6698C29.179 23.6782 29.1857 23.6865 29.1923 23.6948L29.7997 24.4579L25.3024 28.7323L23.5328 26.5691L28.7577 23.1488L29.1724 23.6698ZM18.3181 36.7386L18.3562 36.7137L30.5844 25.0917C30.6672 25.0226 30.7373 24.9394 30.7913 24.8459C31.1827 24.9884 31.596 25.0613 32.0126 25.0611C32.1444 25.0611 32.2761 25.0539 32.4071 25.0397C32.875 24.9903 33.3285 24.849 33.7416 24.624C34.1547 24.399 34.5194 24.0946 34.8146 23.7283C34.8893 23.6418 34.9567 23.5492 35.0159 23.4514C35.2215 23.1153 35.3769 22.751 35.4773 22.37C35.4998 22.2975 35.5222 22.2253 35.5457 22.1536C36.4583 19.3653 36.1023 15.9017 36.0867 15.7556C36.0753 15.6495 36.0303 15.5498 35.9582 15.4711C35.8862 15.3923 35.7908 15.3388 35.686 15.3182C35.5813 15.2976 35.4727 15.311 35.3762 15.3566C35.2797 15.4021 35.2002 15.4773 35.1495 15.5713C34.0887 17.5361 33.5896 18.0565 32.6066 18.2229C32.4559 18.2484 32.2963 18.2707 32.1273 18.2943C31.2049 18.4229 30.0581 18.5829 29.3347 19.4698C29.2796 19.5298 29.2303 19.5951 29.1878 19.6646C29.1777 19.6804 29.1661 19.6987 29.1523 19.7194C28.6242 20.4963 28.4186 21.3368 28.5193 22.1274C28.4478 22.157 28.3802 22.1953 28.3181 22.2415L18.1525 28.8959V10.5838H40.5015V40.8565H18.1525V36.8466C18.2527 36.7813 18.3109 36.7433 18.3181 36.7386ZM35.3775 46.9409H23.2765C21.9249 46.9394 20.6286 46.4045 19.6693 45.4524C18.71 44.5003 18.1652 43.2081 18.1535 41.8565H40.5005C40.4888 43.2081 39.9441 44.5003 38.9848 45.4524C38.0255 46.4045 36.7291 46.9394 35.3775 46.9409Z" fill="white"/>
<path d="M29.0072 42.4736C28.6127 42.4736 28.227 42.5906 27.899 42.8098C27.5709 43.029 27.3153 43.3405 27.1643 43.705C27.0133 44.0694 26.9738 44.4705 27.0508 44.8574C27.1277 45.2444 27.3177 45.5998 27.5967 45.8788C27.8756 46.1577 28.2311 46.3477 28.618 46.4247C29.0049 46.5016 29.406 46.4621 29.7705 46.3111C30.135 46.1602 30.4465 45.9045 30.6657 45.5765C30.8848 45.2484 31.0018 44.8628 31.0018 44.4683C31.0012 43.9394 30.7908 43.4325 30.4169 43.0585C30.043 42.6846 29.536 42.4742 29.0072 42.4736ZM29.0072 45.463C28.8104 45.463 28.6181 45.4047 28.4546 45.2954C28.291 45.1861 28.1635 45.0307 28.0882 44.849C28.0129 44.6672 27.9932 44.4673 28.0316 44.2743C28.0699 44.0813 28.1646 43.9041 28.3037 43.765C28.4428 43.6259 28.6201 43.5311 28.813 43.4927C29.006 43.4544 29.206 43.474 29.3877 43.5493C29.5695 43.6246 29.7248 43.7521 29.8341 43.9156C29.9434 44.0792 30.0018 44.2715 30.0018 44.4683C30.0015 44.732 29.8966 44.9848 29.7102 45.1713C29.5237 45.3578 29.2709 45.4627 29.0072 45.463Z" fill="white"/>
</svg>
