<svg width="19" height="13" viewBox="0 0 19 13" fill="none" xmlns="http://www.w3.org/2000/svg">
<path fill-rule="evenodd" clip-rule="evenodd" d="M5.08929 4.40664C7.32857 6.42722 9.31339 8.08761 9.5 8.09572C9.68661 8.10383 11.6714 6.4529 13.9107 4.42623L17.9821 0.741883L9.5 0.737152L1.01786 0.732422L5.08929 4.40664ZM0 6.84215V11.7666L2.71429 9.12696C4.20714 7.67538 5.42857 6.42249 5.42857 6.34342C5.42857 6.26436 4.20714 5.23582 2.71429 4.05861L0 1.91774V6.84215ZM16.0984 4.26743L13.5361 6.4529L16.2681 9.11007L19 11.7666V6.89891C19 4.22147 18.9233 2.04276 18.8304 2.05695C18.7374 2.07047 17.5078 3.06521 16.0984 4.26743ZM3.72196 10.1508L1.08164 12.8437H9.5H17.9184L15.278 10.1508C12.9057 7.73147 12.5244 7.55983 11.5242 8.46132C10.9121 9.01343 10.0008 9.46485 9.5 9.46485C8.99921 9.46485 8.08789 9.01343 7.47582 8.46132C6.47561 7.55983 6.09425 7.73147 3.72196 10.1508Z" fill="white"/>
</svg>
