<svg width="20" height="20" viewBox="0 0 20 20" fill="none" xmlns="http://www.w3.org/2000/svg">
<path fill-rule="evenodd" clip-rule="evenodd" d="M10 20C15.5228 20 20 15.5228 20 10C20 4.47715 15.5228 0 10 0C4.47715 0 0 4.47715 0 10C0 15.5228 4.47715 20 10 20ZM5 7.52919C4.9987 6.92219 5.52773 5.98811 6.0572 5.66235C6.91527 5.1343 7.00496 5.20446 8.19351 7.33116L8.67305 8.18922L8.26173 8.95661L7.8504 9.72386L8.15839 10.1604C8.5655 10.7373 10.4767 12.5519 10.6771 12.5519C10.7636 12.5519 11.1472 12.3745 11.5295 12.1576L12.2248 11.7633L13.5104 12.5138C14.2175 12.9267 14.8614 13.3685 14.9412 13.4956C15.3289 14.1135 13.9114 15.4737 12.8746 15.4791C11.6198 15.4854 9.86494 14.3618 7.81179 12.2373C5.90161 10.2607 5.00232 8.75521 5 7.52919Z" fill="#D3584D"/>
</svg>
