<svg width="20" height="13" viewBox="0 0 20 13" fill="none" xmlns="http://www.w3.org/2000/svg">
<path fill-rule="evenodd" clip-rule="evenodd" d="M5.35714 3.67422C7.71429 5.6948 9.80357 7.35519 10 7.3633C10.1964 7.37141 12.2857 5.72048 14.6429 3.69381L18.9286 0.00946088L10 0.00473044L1.07143 0L5.35714 3.67422ZM0 6.10973V11.0341L2.85714 8.39454C4.42857 6.94296 5.71429 5.69007 5.71429 5.611C5.71429 5.53193 4.42857 4.5034 2.85714 3.32619L0 1.18532V6.10973ZM16.9457 3.535L14.2486 5.72048L17.1243 8.37764L20 11.0341V6.16649C20 3.48905 19.9193 1.31034 19.8214 1.32453C19.7236 1.33804 18.4293 2.33279 16.9457 3.535ZM3.91786 9.41834L1.13857 12.1113H10H18.8614L16.0821 9.41834C13.585 6.99905 13.1836 6.8274 12.1307 7.72889C11.4864 8.28101 10.5271 8.73243 10 8.73243C9.47286 8.73243 8.51357 8.28101 7.86929 7.72889C6.81643 6.8274 6.415 6.99905 3.91786 9.41834Z" fill="#D3584D"/>
</svg>
