<svg width="21" height="20" viewBox="0 0 21 20" fill="none" xmlns="http://www.w3.org/2000/svg">
<path fill-rule="evenodd" clip-rule="evenodd" d="M9.99974 0.024235C7.49353 0.284665 5.27041 1.40271 3.55763 3.264C1.14404 5.88693 0.335327 9.6872 1.46287 13.1077C1.974 14.6584 2.78439 15.9563 3.96826 17.1203C5.53658 18.6623 7.44369 19.587 9.72588 19.9118C10.1899 19.9779 11.7245 19.9768 12.2063 19.9101C14.4974 19.593 16.4695 18.6147 18.0552 17.009C19.6329 15.4113 20.5573 13.5183 20.8855 11.2132C20.9508 10.7537 20.9508 9.21181 20.8855 8.75228C20.6983 7.43728 20.3142 6.25017 19.7354 5.19759C19.2785 4.36669 18.745 3.65505 18.0552 2.9565C16.4984 1.37998 14.566 0.405719 12.3431 0.0765787C11.8639 0.00560215 10.477 -0.0253353 9.99974 0.024235ZM15.623 6.05388C15.7954 6.12595 15.8782 6.2915 15.8782 6.56423C15.8782 6.81419 14.2271 14.6579 14.1384 14.8295C14.0132 15.0716 13.7458 15.1635 13.4708 15.059C13.3793 15.0242 12.4759 14.3736 11.1563 13.3923L10.8289 13.1488L10.1187 13.8267C9.60135 14.3206 9.374 14.5122 9.28123 14.5325C9.21119 14.5479 9.14506 14.5517 9.13431 14.5409C9.12353 14.5301 9.1524 13.9616 9.19846 13.2774L9.28221 12.0335L9.55646 11.7796C9.70728 11.64 10.7651 10.6812 11.9072 9.64896C13.0493 8.61673 13.9837 7.74662 13.9837 7.71537C13.9837 7.67564 13.9421 7.65966 13.8454 7.66224C13.7336 7.66529 13.1539 8.01443 10.8135 9.48841C9.22189 10.4908 7.89951 11.3109 7.87482 11.3109C7.76701 11.3109 5.30424 10.5192 5.18736 10.447C4.93799 10.2929 4.99103 10.0591 5.31677 9.87697C5.40162 9.82955 6.02408 9.57747 6.70002 9.31681C7.37595 9.05619 8.6497 8.56501 9.53057 8.22537C10.4114 7.88572 11.9847 7.27849 13.0267 6.87599C15.311 5.99365 15.2895 6.00154 15.401 5.99978C15.45 5.999 15.5499 6.02337 15.623 6.05388Z" fill="white"/>
</svg>
