<svg width="30" height="30" viewBox="0 0 30 30" fill="none" xmlns="http://www.w3.org/2000/svg">
<path d="M15 30C23.2843 30 30 23.2843 30 15C30 6.71573 23.2843 0 15 0C6.71573 0 0 6.71573 0 15C0 23.2843 6.71573 30 15 30Z" fill="url(#paint0_linear_348_266)"/>
<path d="M12.25 21.875C11.764 21.875 11.8466 21.6915 11.679 21.2288L10.25 16.5259L21.25 10" fill="#C8DAEA"/>
<path d="M12.25 21.875C12.625 21.875 12.7906 21.7035 13 21.5L15 19.5552L12.5052 18.0509" fill="#A9C9DD"/>
<path d="M12.5054 18.0512L18.5504 22.5174C19.2403 22.898 19.738 22.7009 19.9099 21.877L22.3705 10.2816C22.6224 9.27162 21.9855 8.81337 21.3255 9.11299L6.87678 14.6844C5.89053 15.08 5.8964 15.6302 6.69703 15.8754L10.4049 17.0327L18.989 11.6171C19.3943 11.3714 19.7663 11.5034 19.461 11.7744" fill="url(#paint1_linear_348_266)"/>
<defs>
<linearGradient id="paint0_linear_348_266" x1="20.01" y1="5.01" x2="12.51" y2="22.5" gradientUnits="userSpaceOnUse">
<stop stop-color="#37AEE2"/>
<stop offset="1" stop-color="#1E96C8"/>
</linearGradient>
<linearGradient id="paint1_linear_348_266" x1="16.8809" y1="15.0012" x2="19.2218" y2="20.3348" gradientUnits="userSpaceOnUse">
<stop stop-color="#EFF7FC"/>
<stop offset="1" stop-color="white"/>
</linearGradient>
</defs>
</svg>
