<svg width="21" height="20" viewBox="0 0 21 20" fill="none" xmlns="http://www.w3.org/2000/svg">
<path fill-rule="evenodd" clip-rule="evenodd" d="M9.99394 0.0231937C4.7564 0.528741 0.771563 5.03226 0.93957 10.2562C0.988398 11.7755 1.31715 13.0909 1.98332 14.433C2.95656 16.3936 4.51133 17.9481 6.47589 18.925C9.66062 20.5086 13.4244 20.2909 16.3949 18.3512C17.5563 17.5927 18.6571 16.4684 19.4085 15.2728C19.6941 14.8184 20.1253 13.935 20.3212 13.4032C20.5185 12.8673 20.7486 11.9372 20.834 11.3304C20.9205 10.7157 20.9321 9.29379 20.8551 8.75226C20.6246 7.13011 20.1101 5.7491 19.2561 4.45933C18.8929 3.91081 18.5302 3.46827 18.0248 2.95714C16.4669 1.38136 14.5289 0.404053 12.3128 0.0766703C11.835 0.00608427 10.4921 -0.0248923 9.99394 0.0231937ZM11.9808 5.09488C13.6875 5.48867 15.0318 6.67886 15.6046 8.30304C15.8142 8.8975 15.867 9.23062 15.8643 9.94367C15.8623 10.4937 15.8471 10.6517 15.7609 11.0212C15.3045 12.9772 13.8076 14.4222 11.8317 14.8141C11.6036 14.8593 11.3007 14.8816 10.9066 14.8821C10.2091 14.8831 9.72792 14.7933 9.10113 14.5451L8.70191 14.387L7.44097 14.6855C6.74746 14.8498 6.15847 14.9838 6.13211 14.9834C6.10574 14.983 6.05855 14.9432 6.02722 14.8948C5.97558 14.8152 5.99535 14.6861 6.23929 13.5098L6.50832 12.2126L6.35089 11.8359C6.08902 11.2092 5.99043 10.7002 5.9882 9.9632C5.9855 9.06722 6.12004 8.4882 6.51527 7.69503C7.17527 6.3705 8.48234 5.37199 9.93003 5.08644C10.4189 4.99003 10.4427 4.98828 11.0628 5.00371C11.4597 5.01355 11.7559 5.04296 11.9808 5.09488ZM10.2364 6.13191C8.96878 6.37269 7.8473 7.26363 7.37074 8.40843C7.1323 8.98117 7.08429 9.23574 7.08125 9.94367C7.07796 10.708 7.14242 11.0078 7.44789 11.6495L7.63703 12.0466L7.48343 12.7809C7.39898 13.1847 7.33484 13.5345 7.34089 13.5581C7.34808 13.5863 7.61191 13.5404 8.10222 13.4259L8.85253 13.2507L9.23503 13.4302C9.86445 13.7255 10.1687 13.7903 10.9261 13.79C11.4763 13.7899 11.6193 13.7767 11.9027 13.7C13.0399 13.392 13.9472 12.6295 14.448 11.561C14.7127 10.996 14.768 10.7225 14.7711 9.9632C14.7734 9.38468 14.7621 9.25636 14.6832 8.96711C14.3066 7.58761 13.2666 6.55976 11.8705 6.18706C11.4842 6.08394 10.6389 6.05542 10.2364 6.13191ZM9.47687 7.625C9.56691 7.68808 9.73116 8.01125 9.95402 8.56382C10.0832 8.88429 10.0764 8.92964 9.85409 9.22082C9.66077 9.47406 9.66566 9.61836 9.87691 9.89215C10.2603 10.3891 11.2649 11.1937 11.5019 11.1937C11.6339 11.1937 11.7366 11.1323 11.9687 10.9148C12.0802 10.8104 12.2033 10.7249 12.2422 10.7249C12.2811 10.7249 12.559 10.7949 12.8598 10.8804C13.2819 11.0005 13.4266 11.0589 13.4945 11.1365C13.633 11.295 13.6104 11.4595 13.4135 11.727C13.058 12.2099 12.8013 12.3444 12.2347 12.3447C11.7682 12.3449 11.4255 12.2524 10.9379 11.9948C10.48 11.7527 10.1451 11.5031 9.67999 11.057C8.83976 10.251 8.42542 9.49617 8.42652 8.77336C8.4271 8.37468 8.66371 7.94328 9.0291 7.67457C9.20351 7.54628 9.34253 7.53089 9.47687 7.625Z" fill="white"/>
</svg>
